<svg xmlns="http://www.w3.org/2000/svg" width="107" height="69" fill="none" viewBox="0 0 107 69"><rect width="106" height="68" x=".391" y=".067" fill="#E7E3FC" fill-opacity=".02" rx="4"/><rect width="18" height="2.874" x="5.391" y="24.674" fill="#E7E3FC" fill-opacity=".26" rx="1.437"/><rect width="10" height="10" x="9.391" y="6.126" fill="#E7E3FC" fill-opacity=".26" rx="2"/><rect width="18" height="2.874" x="5.391" y="35.548" fill="#E7E3FC" fill-opacity=".26" rx="1.437"/><rect width="18" height="2.874" x="5.391" y="46.422" fill="#E7E3FC" fill-opacity=".26" rx="1.437"/><rect width="18" height="2.874" x="5.391" y="57.296" fill="#E7E3FC" fill-opacity=".26" rx="1.437"/><rect width="65" height="8.067" x="35.662" y="5.38" stroke="#E7E3FC" stroke-opacity=".12" rx="1.5"/><rect width="4" height="4.533" x="38.143" y="7.147" fill="#E7E3FC" fill-opacity=".26" rx="1"/><rect width="4" height="4.533" x="82.143" y="7.147" fill="#E7E3FC" fill-opacity=".26" rx="1"/><rect width="4" height="4.533" x="88.143" y="7.147" fill="#E7E3FC" fill-opacity=".26" rx="1"/><rect width="4" height="4.533" x="93.143" y="7.147" fill="#E7E3FC" fill-opacity=".26" rx="1"/><rect width="40" height="17.133" x="60.5" y="20.775" stroke="#E7E3FC" stroke-opacity=".12" rx="1.5"/><rect width="18.412" height="17.133" x="35.5" y="20.282" stroke="#E7E3FC" stroke-opacity=".12" rx="1.5"/><rect width="65" height="17.133" x="35.662" y="44.308" stroke="#E7E3FC" stroke-opacity=".12" rx="1.5"/></svg>