<svg xmlns="http://www.w3.org/2000/svg" width="107" height="58" fill="none" viewBox="0 0 107 55"><g opacity=".2"><path fill="#8692D0" d="M53.0996 34.2488C56.9829 34.2488 60.1309 31.1008 60.1309 27.2176C60.1309 23.3343 56.9829 20.1863 53.0996 20.1863C49.2164 20.1863 46.0684 23.3343 46.0684 27.2176C46.0684 31.1008 49.2164 34.2488 53.0996 34.2488Z"/><path fill="#fff" fill-opacity=".2" d="M53.0996 34.2488C56.9829 34.2488 60.1309 31.1008 60.1309 27.2176C60.1309 23.3343 56.9829 20.1863 53.0996 20.1863C49.2164 20.1863 46.0684 23.3343 46.0684 27.2176C46.0684 31.1008 49.2164 34.2488 53.0996 34.2488Z"/></g><path stroke="#8692D0" stroke-linecap="round" stroke-linejoin="round" stroke-width="2" d="M53.0996 34.2488C56.9829 34.2488 60.1309 31.1008 60.1309 27.2176C60.1309 23.3343 56.9829 20.1863 53.0996 20.1863C49.2164 20.1863 46.0684 23.3343 46.0684 27.2176C46.0684 31.1008 49.2164 34.2488 53.0996 34.2488Z"/><path stroke="#fff" stroke-linecap="round" stroke-linejoin="round" stroke-opacity=".2" stroke-width="2" d="M53.0996 34.2488C56.9829 34.2488 60.1309 31.1008 60.1309 27.2176C60.1309 23.3343 56.9829 20.1863 53.0996 20.1863C49.2164 20.1863 46.0684 23.3343 46.0684 27.2176C46.0684 31.1008 49.2164 34.2488 53.0996 34.2488Z"/><path stroke="#8692D0" stroke-linecap="round" stroke-linejoin="round" stroke-width="2" d="M53.0996 16.4363V15.4988"/><path stroke="#fff" stroke-linecap="round" stroke-linejoin="round" stroke-opacity=".2" stroke-width="2" d="M53.0996 16.4363V15.4988"/><path stroke="#8692D0" stroke-linecap="round" stroke-linejoin="round" stroke-width="2" d="M45.4707 19.5887L44.8145 18.9324"/><path stroke="#fff" stroke-linecap="round" stroke-linejoin="round" stroke-opacity=".2" stroke-width="2" d="M45.4707 19.5887L44.8145 18.9324"/><path stroke="#8692D0" stroke-linecap="round" stroke-linejoin="round" stroke-width="2" d="M42.3184 27.2177H41.3809"/><path stroke="#fff" stroke-linecap="round" stroke-linejoin="round" stroke-opacity=".2" stroke-width="2" d="M42.3184 27.2177H41.3809"/><path stroke="#8692D0" stroke-linecap="round" stroke-linejoin="round" stroke-width="2" d="M45.4707 34.8466L44.8145 35.5028"/><path stroke="#fff" stroke-linecap="round" stroke-linejoin="round" stroke-opacity=".2" stroke-width="2" d="M45.4707 34.8466L44.8145 35.5028"/><path stroke="#8692D0" stroke-linecap="round" stroke-linejoin="round" stroke-width="2" d="M53.0996 37.9988V38.9363"/><path stroke="#fff" stroke-linecap="round" stroke-linejoin="round" stroke-opacity=".2" stroke-width="2" d="M53.0996 37.9988V38.9363"/><path stroke="#8692D0" stroke-linecap="round" stroke-linejoin="round" stroke-width="2" d="M60.7285 34.8466L61.3848 35.5028"/><path stroke="#fff" stroke-linecap="round" stroke-linejoin="round" stroke-opacity=".2" stroke-width="2" d="M60.7285 34.8466L61.3848 35.5028"/><path stroke="#8692D0" stroke-linecap="round" stroke-linejoin="round" stroke-width="2" d="M63.8809 27.2177H64.8184"/><path stroke="#fff" stroke-linecap="round" stroke-linejoin="round" stroke-opacity=".2" stroke-width="2" d="M63.8809 27.2177H64.8184"/><path stroke="#8692D0" stroke-linecap="round" stroke-linejoin="round" stroke-width="2" d="M60.7285 19.5887L61.3848 18.9324"/><path stroke="#fff" stroke-linecap="round" stroke-linejoin="round" stroke-opacity=".2" stroke-width="2" d="M60.7285 19.5887L61.3848 18.9324"/></svg>