<svg xmlns="http://www.w3.org/2000/svg" width="106" height="68" fill="none" viewBox="0 0 106 68"><rect width="106" height="68" y="0" fill="#E7E3FC" fill-opacity=".02" rx="4"/><path fill="#E7E3FC" fill-opacity=".87" d="M0 4.00003C0 1.79089 1.79086 3.05176e-05 4 3.05176e-05H28V68H4C1.79086 68 0 66.2092 0 64V4.00003Z"/><rect width="18" height="2.874" x="5" y="24.608" fill="#3A3541" fill-opacity=".87" rx="1.437"/><rect width="18" height="2.874" x="5" y="24.608" stroke="#DBDADE" rx="1.437"/><rect width="10" height="10" x="9" y="6.06" fill="#3A3541" fill-opacity=".87" rx="2"/><rect width="10" height="10" x="9" y="6.06" stroke="#DBDADE" rx="2"/><rect width="18" height="2.874" x="5" y="35.482" fill="#3A3541" fill-opacity=".87" rx="1.437"/><rect width="18" height="2.874" x="5" y="35.482" stroke="#DBDADE" rx="1.437"/><rect width="18" height="2.874" x="5" y="46.356" fill="#3A3541" fill-opacity=".87" rx="1.437"/><rect width="18" height="2.874" x="5" y="46.356" stroke="#DBDADE" rx="1.437"/><rect width="18" height="2.874" x="5" y="57.23" fill="#3A3541" fill-opacity=".87" rx="1.437"/><rect width="18" height="2.874" x="5" y="57.23" stroke="#DBDADE" rx="1.437"/><rect width="66" height="9.067" x="34.772" y="4.813" fill="#E7E3FC" fill-opacity=".08" rx="2"/><rect width="41" height="18.133" x="59.609" y="20.208" fill="#E7E3FC" fill-opacity=".08" rx="2"/><rect width="19.412" height="18.133" x="34.772" y="20.208" fill="#E7E3FC" fill-opacity=".08" rx="2"/><rect width="66" height="18.133" x="34.772" y="43.741" fill="#E7E3FC" fill-opacity=".08" rx="2"/></svg>